<?xml version="1.0" encoding="utf-8"?>
<!-- Generator: Adobe Illustrator 23.0.0, SVG Export Plug-In . SVG Version: 6.00 Build 0)  -->
<svg version="1.1" id="Calque_1" xmlns="http://www.w3.org/2000/svg" xmlns:xlink="http://www.w3.org/1999/xlink" x="0px" y="0px"
	 viewBox="0 0 308.9 188.8" style="enable-background:new 0 0 308.9 188.8;" xml:space="preserve">
<title>gauche_V2</title>
<path d="M52.5,147.4c-8.5,0.1-16.8-2.3-23.8-7.1C22,135.8,16.3,129.9,12,123v65H2V41.4h9v20.8c4.3-6.7,10.1-12.3,17-16.3
	c13-7.7,29-8.4,42.5-1.7c6,3,11.3,7.1,15.7,12.1c9,10.4,13.9,23.6,14,37.3c0,7-1.1,14-3.4,20.6c-2.1,6.3-5.4,12.1-9.7,17.2
	c-4.2,4.9-9.3,8.9-15.1,11.7C65.9,146,59.3,147.5,52.5,147.4z M50.3,138.4c5.7,0.1,11.3-1.2,16.3-3.8c4.8-2.5,9.1-5.9,12.5-10.1
	c3.5-4.3,6.2-9.2,8-14.4C89,104.8,90,99.2,90,93.6c0-5.9-1.1-11.7-3.2-17.1c-2-5.3-5-10.1-8.8-14.3c-3.7-4.1-8.2-7.5-13.2-9.9
	c-5-2.5-10.6-3.7-16.2-3.7c-4,0.1-7.9,0.9-11.6,2.3c-4.1,1.5-8,3.6-11.6,6.2c-3.5,2.5-6.5,5.5-9.1,8.9c-2.4,3.1-3.9,6.7-4.3,10.6
	v34.2c1.6,3.9,3.8,7.5,6.4,10.8c2.6,3.3,5.7,6.2,9,8.8c3.3,2.5,7,4.5,10.9,5.9C42.2,137.7,46.2,138.4,50.3,138.4z"/>
<path d="M144.8-0.6H155v125.4c0,3.9,1.1,6.9,3.3,9.2c2.2,2.3,5.2,3.4,9.1,3.4c1.8,0,3.5-0.2,5.3-0.5c1.9-0.3,3.9-0.8,5.7-1.5l2,8
	c-2.7,1.1-5.5,1.8-8.4,2.3c-2.8,0.5-5.7,0.9-8.6,0.9c-5.6,0-10.1-1.7-13.5-5.1c-3.4-3.4-5.1-8-5.1-13.7L144.8-0.6z"/>
<path d="M258.4,147.4c-7,0.1-14-1.4-20.4-4.3c-6.2-2.8-11.7-6.8-16.3-11.8c-4.6-5.1-8.3-10.9-10.8-17.3c-2.6-6.7-3.9-13.8-3.9-21
	c-0.1-14,5.1-27.4,14.6-37.7c9.4-10.1,22.6-15.8,36.4-15.7c7-0.1,13.9,1.4,20.3,4.3c6.1,2.8,11.5,6.7,16.1,11.6
	C303.8,65.7,309,79.1,309,93c0,0.7,0,1.5-0.1,2.5s-0.1,1.6-0.1,1.9h-91.4c0.3,5.8,1.8,11.4,4.2,16.7c2.3,4.9,5.3,9.4,9.1,13.3
	c3.6,3.7,7.9,6.7,12.7,8.8c4.8,2.1,10.1,3.2,15.4,3.2c3.6,0,7.2-0.5,10.7-1.5c3.4-1,6.7-2.3,9.8-4.1c3-1.7,5.7-3.8,8-6.3
	c2.3-2.4,4.1-5.1,5.5-8.1l8.8,2.4c-1.6,3.8-3.9,7.3-6.7,10.3c-2.9,3.2-6.3,5.9-10,8.1C276.9,144.9,267.7,147.4,258.4,147.4
	L258.4,147.4z M299.1,89.4c-0.3-5.8-1.7-11.5-4.1-16.8c-2.2-4.9-5.3-9.3-9-13.1c-3.6-3.7-8-6.6-12.7-8.6c-9.9-4.1-20.9-4.1-30.8,0
	c-4.7,2-9.1,4.9-12.7,8.6c-3.8,3.8-6.7,8.3-8.8,13.2c-2.2,5.3-3.6,11-3.9,16.7H299.1z"/>
</svg>
