<svg xmlns="http://www.w3.org/2000/svg" viewBox="0 0 157.98 157.98">
    <path
        d="M51.63,52.29l5.42-1.74c1.7-.53,3.25-1,4.65-1.34s2.62-.65,3.66-.85a13.91,13.91,0,0,1,2.41-.28,7.33,7.33,0,0,1,2.42.37,5.48,5.48,0,0,1,2.19,1.44,12.73,12.73,0,0,1,2.07,3,34.06,34.06,0,0,1,2,4.92q1.25,3.63,2.48,6.89t2.4,6.47Q84,65.9,86.65,61.57a52.47,52.47,0,0,1,5.29-7.35,23.94,23.94,0,0,1,5.42-4.72A10.67,10.67,0,0,1,103,47.82a8.79,8.79,0,0,1,3.25.56,7.68,7.68,0,0,1,2.4,1.47A5.8,5.8,0,0,1,110.12,52a6.68,6.68,0,0,1,.46,2.5,7.65,7.65,0,0,1-3.51,6.36h-.33a8,8,0,0,0-1.55-1.46,7.34,7.34,0,0,0-3.26-1.29c-.51-.06-1-.09-1.55-.1a8.87,8.87,0,0,0-4.69,1.4,18.38,18.38,0,0,0-4.36,3.84A42.12,42.12,0,0,0,87.21,69q-2,3.34-4,7.32c1.3,3.56,2.49,6.68,3.58,9.39s2.12,5,3.08,7a38,38,0,0,0,2.79,4.94,16.64,16.64,0,0,0,2.79,3.19,8.55,8.55,0,0,0,2.94,1.69,10.82,10.82,0,0,0,3.34.5c.83,0,1.6,0,2.3-.08s1.39-.15,2.07-.27a19.45,19.45,0,0,0,2.13-.52c.74-.22,1.57-.49,2.48-.82l.83,2.35a35,35,0,0,1-4.27,2.5,37.85,37.85,0,0,1-4.59,2,33.57,33.57,0,0,1-4.52,1.24,21.09,21.09,0,0,1-4.11.43,9,9,0,0,1-4.82-1.3,13.78,13.78,0,0,1-4-4.14,46.06,46.06,0,0,1-3.87-7.23q-2-4.41-4.29-10.61-2.94,5.21-5.8,9.55a58.48,58.48,0,0,1-5.77,7.44,26.53,26.53,0,0,1-5.81,4.86,11.41,11.41,0,0,1-5.9,1.74,9.32,9.32,0,0,1-3.18-.5,6.73,6.73,0,0,1-2.27-1.32,5.53,5.53,0,0,1-1.4-1.92,5.69,5.69,0,0,1-.46-2.3,7.2,7.2,0,0,1,.62-2.85,9.52,9.52,0,0,1,1.86-2.79,25,25,0,0,0,4,1.16,17.2,17.2,0,0,0,3.2.33,10.55,10.55,0,0,0,5.09-1.32A19.93,19.93,0,0,0,66,94.93a42.3,42.3,0,0,0,4.57-5.84q2.28-3.44,4.59-7.65c-.5-1.32-1-2.68-1.51-4.09s-1-2.89-1.63-4.44-1.18-3.2-1.81-5-1.32-3.61-2-5.58a28.12,28.12,0,0,0-1.86-4.11,9.84,9.84,0,0,0-2-2.51A5.78,5.78,0,0,0,62,54.52a10.38,10.38,0,0,0-2.71-.34,19.18,19.18,0,0,0-3.12.31c-1.2.21-2.5.47-3.91.77Z" />
    <circle fill="none" stroke="#000" stroke-miterlimit="10" stroke-width="2" cx="78.99" cy="78.99" r="77.98" />
</svg>