<?xml version="1.0" encoding="utf-8"?>
<!-- Generator: Adobe Illustrator 23.0.0, SVG Export Plug-In . SVG Version: 6.00 Build 0)  -->
<svg version="1.1" id="Calque_1" xmlns="http://www.w3.org/2000/svg" xmlns:xlink="http://www.w3.org/1999/xlink" x="0px" y="0px"
	 viewBox="0 0 725.2 188.6" style="enable-background:new 0 0 725.2 188.6;" xml:space="preserve">
<style type="text/css">
	.st0{fill:#FFFFFF;}
</style>
<title>logo-blanc_1</title>
<g>
	<g id="Calque_1-2">
		<g id="LOGO_FINAL_BLANC">
			<path class="st0" d="M50.6,148c-8.5,0.1-16.8-2.3-23.8-7.1c-6.7-4.5-12.5-10.4-16.8-17.3v65H0V42h9v20.8
				c4.3-6.7,10.1-12.3,17-16.3c13-7.7,29-8.4,42.5-1.7c6,3,11.3,7.1,15.7,12.1c9,10.4,13.9,23.6,14,37.3c0,7-1.1,14-3.4,20.6
				c-2.1,6.3-5.4,12.1-9.7,17.2c-4.2,4.9-9.3,8.9-15.1,11.7C64,146.6,57.3,148.1,50.6,148z M48.4,139c5.7,0.1,11.3-1.2,16.3-3.8
				c4.8-2.5,9.1-5.9,12.5-10.1c3.5-4.3,6.2-9.2,8-14.4c1.9-5.3,2.8-10.9,2.8-16.5c0-5.9-1.1-11.7-3.2-17.1c-2-5.3-5-10.1-8.8-14.3
				c-3.7-4.1-8.2-7.5-13.2-9.9c-5-2.5-10.6-3.7-16.2-3.7c-4,0.1-7.9,0.9-11.6,2.3c-4.1,1.5-8,3.6-11.6,6.2c-3.5,2.5-6.5,5.5-9.1,8.9
				c-2.4,3.1-3.9,6.7-4.3,10.6v34.2c1.6,3.9,3.8,7.5,6.4,10.8c2.6,3.3,5.7,6.2,9,8.8c3.3,2.5,7,4.5,10.9,5.9
				C40.2,138.3,44.3,139,48.4,139z"/>
			<path class="st0" d="M142.8,0H153v125.4c0,3.9,1.1,6.9,3.3,9.2c2.2,2.3,5.2,3.4,9.1,3.4c1.8,0,3.5-0.2,5.3-0.5
				c1.9-0.3,3.9-0.8,5.7-1.5l2,8c-2.7,1.1-5.5,1.8-8.4,2.3c-2.8,0.5-5.7,0.9-8.6,0.9c-5.6,0-10.1-1.7-13.5-5.1
				c-3.4-3.4-5.1-8-5.1-13.7V0z"/>
			<path class="st0" d="M256.4,148c-7,0.1-14-1.4-20.4-4.3c-6.2-2.8-11.7-6.8-16.3-11.8c-9.6-10.5-14.8-24.1-14.7-38.3
				c0-7.1,1.3-14.1,3.9-20.7c2.5-6.3,6.1-12,10.7-17c9.4-10.1,22.6-15.8,36.4-15.7c7-0.1,13.9,1.4,20.3,4.3
				c6.1,2.8,11.5,6.7,16.1,11.6c9.4,10.2,14.6,23.6,14.6,37.5c0,0.7,0,1.5-0.1,2.5s-0.1,1.6-0.1,1.9h-91.4
				c0.3,5.8,1.8,11.4,4.2,16.7c2.3,4.9,5.3,9.4,9.1,13.3c3.6,3.7,7.9,6.7,12.7,8.8c4.8,2.1,10.1,3.2,15.4,3.2
				c3.6,0,7.2-0.5,10.7-1.5c3.4-1,6.7-2.3,9.8-4.1c3-1.7,5.7-3.8,8-6.3c2.3-2.4,4.1-5.1,5.5-8.1l8.8,2.4c-1.6,3.8-3.9,7.3-6.7,10.3
				c-2.9,3.2-6.3,5.9-10,8.1C274.9,145.5,265.7,148,256.4,148L256.4,148z M297.2,90c-0.3-5.8-1.7-11.5-4.1-16.8
				c-2.2-4.9-5.2-9.3-9-13.1c-3.6-3.7-8-6.6-12.7-8.6c-9.9-4.1-20.9-4.1-30.8,0c-4.7,2-9.1,4.9-12.7,8.6c-3.8,3.8-6.7,8.3-8.8,13.2
				c-2.2,5.3-3.6,11-3.9,16.7H297.2z"/>
			<path class="st0" d="M341.4,37.7c4.1-1.3,8-2.6,11.6-3.7c3.7-1.2,7-2.1,10-2.9c3-0.8,5.6-1.4,7.9-1.8c1.7-0.4,3.5-0.6,5.2-0.6
				c1.8,0,3.5,0.3,5.2,0.8c1.8,0.6,3.4,1.7,4.7,3.1c1.8,1.9,3.3,4.1,4.5,6.4c1.7,3.4,3.2,6.9,4.4,10.6c1.8,5.2,3.6,10.1,5.3,14.8
				c1.8,4.7,3.5,9.3,5.2,13.9c3.8-7.5,7.6-14.4,11.3-20.6c3.3-5.6,7.1-10.9,11.4-15.8c3.3-3.9,7.3-7.4,11.6-10.1
				c3.6-2.3,7.8-3.6,12.1-3.6c2.4,0,4.8,0.4,7,1.2c1.9,0.7,3.7,1.8,5.2,3.2c1.4,1.3,2.4,2.8,3.1,4.6c0.7,1.7,1,3.5,1,5.4
				c0,2.6-0.7,5.1-1.9,7.4c-1.3,2.5-3.3,4.7-5.7,6.3h-0.7c-1-1.2-2.1-2.3-3.3-3.2c-2.1-1.5-4.5-2.4-7-2.8c-1.1-0.1-2.2-0.2-3.3-0.2
				c-3.6,0-7.1,1.1-10.1,3c-3.5,2.2-6.7,5-9.4,8.3c-3.3,3.9-6.2,8.1-8.8,12.5c-2.9,4.8-5.7,10-8.6,15.7c2.8,7.6,5.3,14.4,7.7,20.2
				c2.3,5.8,4.6,10.8,6.6,15.1c1.7,3.7,3.7,7.2,6,10.6c1.7,2.5,3.7,4.8,6,6.9c1.8,1.6,4,2.9,6.3,3.6c2.3,0.7,4.8,1.1,7.2,1.1
				c1.8,0,3.4-0.1,4.9-0.2s3-0.3,4.5-0.6c1.5-0.3,3.1-0.7,4.6-1.1c1.6-0.5,3.4-1.1,5.3-1.8l1.8,5.1c-2.9,2-6,3.8-9.2,5.4
				c-3.2,1.6-6.5,3-9.9,4.2c-3.2,1.1-6.4,2-9.7,2.7c-2.9,0.6-5.9,0.9-8.8,0.9c-3.6,0.1-7.2-0.9-10.4-2.8c-3.5-2.3-6.5-5.3-8.7-8.9
				c-3.2-4.9-6-10.1-8.3-15.6c-2.8-6.3-5.9-13.9-9.2-22.8c-4.2,7.5-8.4,14.3-12.5,20.5c-3.7,5.7-7.8,11-12.4,16
				c-3.6,4.1-7.9,7.6-12.5,10.4c-3.8,2.4-8.2,3.7-12.7,3.7c-2.3,0-4.6-0.3-6.8-1.1c-1.8-0.6-3.5-1.6-4.9-2.8c-1.3-1.1-2.3-2.6-3-4.1
				c-0.7-1.6-1-3.2-1-4.9c0-2.1,0.5-4.2,1.3-6.1c1-2.2,2.3-4.3,4-6c2.8,1.1,5.7,1.9,8.6,2.5c2.3,0.5,4.6,0.7,6.9,0.7
				c3.8,0,7.6-1,10.9-2.8c3.8-2.1,7.2-4.8,10.2-8c3.6-3.9,6.9-8.1,9.8-12.5c3.3-4.9,6.6-10.4,9.9-16.5c-1.1-2.8-2.2-5.8-3.3-8.8
				s-2.3-6.2-3.5-9.5c-1.2-3.3-2.5-6.9-3.9-10.7c-1.4-3.8-2.8-7.8-4.4-12c-1.1-3.1-2.4-6-4-8.8c-1.1-2-2.6-3.8-4.3-5.4
				c-1.4-1.2-3.1-2.2-4.9-2.7c-1.9-0.5-3.9-0.7-5.8-0.7c-2.3,0-4.5,0.3-6.7,0.7c-2.6,0.5-5.4,1-8.4,1.7L341.4,37.7z"/>
			<path class="st0" d="M546.8,148c-22.3,0-33.4-15.3-33.4-46V42h10v58.6c0,25.6,8.7,38.4,26.2,38.4c4.4,0,8.8-0.8,12.9-2.3
				c8.6-3.1,16-8.8,21.2-16.3c2.8-3.9,5-8.2,6.5-12.8V42h10v90c0,3.3,1.4,5,4.2,5v9c-0.7,0.1-1.3,0.2-2,0.2h-1.6
				c-2.5,0.1-5-0.8-6.9-2.5c-1.8-1.7-2.8-4-2.7-6.5v-15.8c-4.4,8.1-10.9,14.9-18.8,19.6C564.7,145.6,555.8,148.1,546.8,148z"/>
			<path class="st0" d="M685.2,148c-7.8,0-15.6-1.3-23-4c-7.2-2.6-13.7-6.7-19.2-12l5-6.8c5.1,4.7,11,8.5,17.4,11.2
				c6.3,2.5,13,3.7,19.8,3.6c9.1,0,16.4-1.9,21.9-5.7c5.4-3.5,8.5-9.5,8.3-15.9c0.1-2.8-0.6-5.7-2.1-8.1c-1.6-2.4-3.8-4.3-6.3-5.6
				c-3.3-1.7-6.8-3.1-10.4-4.1c-4.1-1.2-8.9-2.5-14.4-3.8c-5.9-1.3-11-2.7-15.3-4c-3.8-1.1-7.4-2.7-10.7-4.8c-2.6-1.7-4.8-4-6.3-6.8
				c-1.5-3.2-2.2-6.7-2.1-10.2c-0.1-4.7,0.9-9.4,3-13.6c2-3.8,4.8-7.1,8.3-9.6c3.7-2.6,7.8-4.5,12.2-5.7c4.8-1.3,9.7-1.9,14.7-1.9
				c7.4-0.1,14.8,1.3,21.6,4.1c6.3,2.7,11.1,6.2,14.6,10.5l-5.6,5.4c-3.6-4.1-8.3-7.2-13.5-9c-5.7-2-11.7-3-17.7-3
				c-3.7,0-7.3,0.4-10.9,1.2c-3.2,0.7-6.2,2-8.9,3.8c-2.5,1.7-4.6,4-6,6.7c-1.5,3-2.3,6.3-2.2,9.7c-0.1,2.6,0.4,5.1,1.5,7.4
				c1.1,2,2.8,3.7,4.8,4.8c2.7,1.5,5.5,2.7,8.5,3.5c3.5,1,7.6,2.1,12.4,3.3c6.5,1.6,12.3,3.1,17.4,4.6c4.5,1.2,8.7,3,12.7,5.4
				c3.2,1.9,5.8,4.5,7.8,7.6c1.9,3.4,2.9,7.3,2.7,11.2c0,9.3-3.6,16.8-10.9,22.3C707,145.2,697.3,148,685.2,148z"/>
		</g>
	</g>
</g>
</svg>
