<svg xmlns="http://www.w3.org/2000/svg" viewBox="0 0 725.19 188.6" fill="#fff">
	<path
		d="M50.6,148a41.23,41.23,0,0,1-23.8-7.1A58.48,58.48,0,0,1,10,123.6v65H0V42H9V62.8A50.39,50.39,0,0,1,26,46.5a44.44,44.44,0,0,1,42.5-1.7A51.87,51.87,0,0,1,84.2,56.9a57.45,57.45,0,0,1,14,37.3,62.3,62.3,0,0,1-3.4,20.6A53.13,53.13,0,0,1,85.1,132,46.37,46.37,0,0,1,70,143.7,43.54,43.54,0,0,1,50.6,148Zm-2.2-9a34.82,34.82,0,0,0,16.3-3.8,39.92,39.92,0,0,0,12.5-10.1,46,46,0,0,0,8-14.4A50.09,50.09,0,0,0,88,94.2a46.18,46.18,0,0,0-3.2-17.1A46.71,46.71,0,0,0,76,62.8a43,43,0,0,0-13.2-9.9,36.5,36.5,0,0,0-16.2-3.7A33.53,33.53,0,0,0,35,51.5a48.54,48.54,0,0,0-11.6,6.2,41.4,41.4,0,0,0-9.1,8.9A21.46,21.46,0,0,0,10,77.2v34.2a44.15,44.15,0,0,0,6.4,10.8,51.3,51.3,0,0,0,9,8.8,40.26,40.26,0,0,0,10.9,5.9A35.83,35.83,0,0,0,48.4,139Z" />
	<path
		d="M142.8,0H153V125.4q0,5.81,3.3,9.2t9.1,3.4a34.6,34.6,0,0,0,5.3-.5,28.28,28.28,0,0,0,5.7-1.5l2,8a42.1,42.1,0,0,1-8.4,2.3,49.68,49.68,0,0,1-8.6.9q-8.4,0-13.5-5.1t-5.1-13.7Z" />
	<path
		d="M256.4,148a48.36,48.36,0,0,1-20.4-4.3,50.41,50.41,0,0,1-16.3-11.8A56.08,56.08,0,0,1,205,93.6a55,55,0,0,1,3.9-20.7,54.39,54.39,0,0,1,10.7-17A49.46,49.46,0,0,1,256,40.2a47.74,47.74,0,0,1,20.3,4.3,51.1,51.1,0,0,1,16.1,11.6A55.11,55.11,0,0,1,307,93.6c0,.67,0,1.5-.1,2.5s-.1,1.63-.1,1.9H215.4a46.33,46.33,0,0,0,4.2,16.7,47.41,47.41,0,0,0,9.1,13.3,40.88,40.88,0,0,0,12.7,8.8,37.53,37.53,0,0,0,15.4,3.2,39.15,39.15,0,0,0,10.7-1.5,43,43,0,0,0,9.8-4.1,35.11,35.11,0,0,0,8-6.3,29.85,29.85,0,0,0,5.5-8.1l8.8,2.4a36.63,36.63,0,0,1-6.7,10.3,44.26,44.26,0,0,1-10,8.1,52.21,52.21,0,0,1-26.5,7.2Zm40.8-58a47.25,47.25,0,0,0-4.1-16.8,45.11,45.11,0,0,0-9-13.1,40.41,40.41,0,0,0-12.7-8.6,39.8,39.8,0,0,0-30.8,0,40.29,40.29,0,0,0-12.7,8.6,41.63,41.63,0,0,0-8.8,13.2A50.6,50.6,0,0,0,215.2,90Z" />
	<path
		d="M341.4,37.67q6.14-2,11.64-3.73t10-2.89q4.53-1.2,7.86-1.82a30.79,30.79,0,0,1,5.2-.62,16.41,16.41,0,0,1,5.2.8,11.81,11.81,0,0,1,4.71,3.11,27.71,27.71,0,0,1,4.45,6.4,73.51,73.51,0,0,1,4.4,10.58q2.67,7.81,5.33,14.8t5.16,13.91q5.69-11.29,11.33-20.58a112.57,112.57,0,0,1,11.38-15.82,51.15,51.15,0,0,1,11.64-10.14,23.07,23.07,0,0,1,12.14-3.6,19,19,0,0,1,7,1.2A16.14,16.14,0,0,1,464,32.43,12.32,12.32,0,0,1,467.13,37a14.72,14.72,0,0,1,1,5.38,16.37,16.37,0,0,1-1.86,7.42,16.61,16.61,0,0,1-5.69,6.26h-.71a16.56,16.56,0,0,0-3.34-3.15,15.79,15.79,0,0,0-7-2.76,27.9,27.9,0,0,0-3.33-.22,19,19,0,0,0-10.09,3,40.36,40.36,0,0,0-9.38,8.26,91.13,91.13,0,0,0-8.84,12.49q-4.32,7.2-8.58,15.74,4.17,11.46,7.69,20.18t6.62,15.06a84.24,84.24,0,0,0,6,10.62,34.91,34.91,0,0,0,6,6.85,18.49,18.49,0,0,0,6.31,3.64,23.24,23.24,0,0,0,7.2,1.07c1.78,0,3.42-.06,4.93-.18s3-.31,4.45-.57a44,44,0,0,0,4.58-1.12c1.6-.47,3.37-1.06,5.33-1.77l1.78,5.06a76.51,76.51,0,0,1-9.16,5.38,84,84,0,0,1-9.87,4.18,73.13,73.13,0,0,1-9.73,2.67,46.27,46.27,0,0,1-8.84.93,19.41,19.41,0,0,1-10.36-2.8,29.81,29.81,0,0,1-8.71-8.89,99.83,99.83,0,0,1-8.31-15.56Q401,124.7,396,111.36q-6.32,11.2-12.48,20.54a126,126,0,0,1-12.4,16,57.53,57.53,0,0,1-12.49,10.45,24.51,24.51,0,0,1-12.67,3.73,20,20,0,0,1-6.84-1.07,14.56,14.56,0,0,1-4.89-2.84,11.93,11.93,0,0,1-3-4.13,12.31,12.31,0,0,1-1-4.94,15.45,15.45,0,0,1,1.33-6.13,20.59,20.59,0,0,1,4-6,52.83,52.83,0,0,0,8.58,2.49,37,37,0,0,0,6.89.71,22.59,22.59,0,0,0,10.93-2.84,42.11,42.11,0,0,0,10.22-8A89.67,89.67,0,0,0,382,116.79q4.89-7.38,9.87-16.45-1.61-4.26-3.25-8.8T385.13,82q-1.86-5-3.91-10.66t-4.36-12a59.48,59.48,0,0,0-4-8.84,21.17,21.17,0,0,0-4.27-5.38,12.39,12.39,0,0,0-4.89-2.66,22,22,0,0,0-5.82-.72,40.75,40.75,0,0,0-6.71.67c-2.58.45-5.38,1-8.4,1.65Z" />
	<path
		d="M546.79,148q-33.4,0-33.4-46V42h10v58.6q0,38.4,26.2,38.4a37.42,37.42,0,0,0,12.9-2.3,44.46,44.46,0,0,0,21.2-16.3,50.4,50.4,0,0,0,6.5-12.8V42h10v90q0,5,4.2,5v9a13,13,0,0,1-2,.2h-1.6a9.74,9.74,0,0,1-6.9-2.5,8.45,8.45,0,0,1-2.7-6.5V121.4a51.17,51.17,0,0,1-18.8,19.6A49.27,49.27,0,0,1,546.79,148Z" />
	<path
		d="M685.19,148a66.69,66.69,0,0,1-23-4A53.32,53.32,0,0,1,643,132l5-6.8a58.35,58.35,0,0,0,17.4,11.2,52.85,52.85,0,0,0,19.8,3.6q13.6,0,21.9-5.7a18.23,18.23,0,0,0,8.3-15.9,14.79,14.79,0,0,0-2.1-8.1,16.77,16.77,0,0,0-6.3-5.6,52.27,52.27,0,0,0-10.4-4.1q-6.2-1.8-14.4-3.8-8.81-2-15.3-4a41,41,0,0,1-10.7-4.8,18.52,18.52,0,0,1-6.3-6.8,21.87,21.87,0,0,1-2.1-10.2,29.23,29.23,0,0,1,3-13.6,26.78,26.78,0,0,1,8.3-9.6,38.18,38.18,0,0,1,12.2-5.7A55,55,0,0,1,686,40.2a53.66,53.66,0,0,1,21.6,4.1q9.4,4.1,14.6,10.5l-5.6,5.4a31.77,31.77,0,0,0-13.5-9,51.65,51.65,0,0,0-17.7-3,47.47,47.47,0,0,0-10.9,1.2,26.28,26.28,0,0,0-8.9,3.8,18.78,18.78,0,0,0-6,6.7,20.19,20.19,0,0,0-2.2,9.7,15.68,15.68,0,0,0,1.5,7.4,12.68,12.68,0,0,0,4.8,4.8,35.6,35.6,0,0,0,8.5,3.5q5.2,1.5,12.4,3.3,9.79,2.4,17.4,4.6a50.35,50.35,0,0,1,12.7,5.4,23.68,23.68,0,0,1,7.8,7.6,21.11,21.11,0,0,1,2.7,11.2q0,14-10.9,22.3T685.19,148Z" />
</svg>