<?xml version="1.0" encoding="utf-8"?>
<!-- Generator: Adobe Illustrator 23.0.0, SVG Export Plug-In . SVG Version: 6.00 Build 0)  -->
<svg version="1.1" id="Calque_1" xmlns="http://www.w3.org/2000/svg" xmlns:xlink="http://www.w3.org/1999/xlink" x="0px" y="0px"
	 viewBox="0 0 308.9 188.8" style="enable-background:new 0 0 308.9 188.8;" xml:space="preserve">
<title>droite_V2</title>
<path d="M34.9,149.4c-22.3,0-33.4-15.3-33.4-46v-60h10V102c0,25.6,8.7,38.4,26.2,38.4c4.4,0,8.8-0.8,12.9-2.3
	c8.6-3.1,16-8.8,21.2-16.3c2.8-3.9,5-8.2,6.5-12.8V43.4h10v90c0,3.3,1.4,5,4.2,5v9c-0.7,0.1-1.3,0.2-2,0.2h-1.6
	c-2.5,0.1-5-0.8-6.9-2.5c-1.8-1.7-2.8-4-2.7-6.5v-15.8c-4.4,8.1-10.9,14.9-18.8,19.6C52.7,147.1,43.9,149.5,34.9,149.4z"/>
<path d="M173.3,149.4c-7.8,0-15.6-1.3-23-4c-7.2-2.6-13.7-6.7-19.2-12l5-6.8c5.1,4.7,11,8.5,17.4,11.2c6.3,2.5,13,3.7,19.8,3.6
	c9.1,0,16.4-1.9,21.9-5.7c5.4-3.5,8.5-9.5,8.3-15.9c0.1-2.8-0.6-5.7-2.1-8.1c-1.6-2.4-3.8-4.3-6.3-5.6c-3.3-1.7-6.8-3.1-10.4-4.1
	c-4.1-1.2-8.9-2.5-14.4-3.8c-5.9-1.3-11-2.7-15.3-4c-3.8-1.1-7.4-2.7-10.7-4.8c-2.6-1.7-4.8-4-6.3-6.8c-1.5-3.2-2.2-6.7-2.1-10.2
	c-0.1-4.7,0.9-9.4,3-13.6c2-3.8,4.8-7.1,8.3-9.6c3.7-2.6,7.8-4.5,12.2-5.7c4.8-1.3,9.7-1.9,14.7-1.9c7.4-0.1,14.8,1.3,21.6,4.1
	c6.3,2.7,11.1,6.2,14.6,10.5l-5.6,5.4c-3.6-4.1-8.3-7.2-13.5-9c-5.7-2-11.7-3-17.7-3c-3.7,0-7.3,0.4-10.9,1.2
	c-3.2,0.7-6.2,2-8.9,3.8c-2.5,1.7-4.6,4-6,6.7c-1.5,3-2.3,6.3-2.2,9.7c-0.1,2.6,0.4,5.1,1.5,7.4c1.1,2,2.8,3.7,4.8,4.8
	c2.7,1.5,5.5,2.7,8.5,3.5c3.5,1,7.6,2.1,12.4,3.3c6.5,1.6,12.3,3.1,17.4,4.6c4.5,1.2,8.7,3,12.7,5.4c3.2,1.9,5.8,4.5,7.8,7.6
	c1.9,3.4,2.9,7.3,2.7,11.2c0,9.3-3.6,16.8-10.9,22.3C195.1,146.7,185.4,149.4,173.3,149.4z"/>
</svg>
