<svg xmlns="http://www.w3.org/2000/svg" viewBox="0 0 308.9 188.8" fill="#fff" stroke="#000" stroke-miterlimit="10">
	<path d="M89.8,29.4c4.1-1.4,8-2.6,11.6-3.7s7-2.1,10-2.9s5.7-1.4,7.9-1.8c1.7-0.4,3.5-0.6,5.2-0.6
	c1.8,0,3.5,0.3,5.2,0.8c1.8,0.6,3.4,1.7,4.7,3.1c1.8,1.9,3.3,4.1,4.4,6.4c1.7,3.4,3.2,6.9,4.4,10.6c1.8,5.2,3.6,10.2,5.3,14.8
	c1.8,4.6,3.5,9.3,5.2,14c3.8-7.5,7.6-14.4,11.3-20.6c3.3-5.6,7.1-10.9,11.4-15.8c3.3-3.9,7.3-7.4,11.6-10.1
	c3.6-2.3,7.8-3.6,12.1-3.6c2.4,0,4.8,0.4,7,1.2c1.9,0.7,3.6,1.8,5.1,3.2c1.4,1.3,2.4,2.8,3.1,4.6c0.7,1.7,1,3.5,1,5.4
	c0,2.6-0.7,5.1-1.9,7.4c-1.3,2.5-3.3,4.7-5.7,6.2h-0.7c-0.9-1.2-2-2.3-3.3-3.2c-1.1-0.8-2.3-1.4-3.5-1.9c-1.1-0.4-2.3-0.7-3.5-0.9
	c-1.1-0.1-2.2-0.2-3.3-0.2c-3.6,0-7.1,1.1-10.1,3c-3.5,2.2-6.7,5-9.4,8.3c-3.3,3.9-6.2,8.1-8.8,12.5c-2.9,4.8-5.7,10-8.6,15.7
	c2.8,7.6,5.3,14.4,7.7,20.2c2.3,5.8,4.6,10.8,6.6,15.1c1.7,3.7,3.7,7.2,6,10.6c1.7,2.5,3.7,4.8,6,6.8c1.8,1.6,4,2.9,6.3,3.6
	c2.3,0.7,4.8,1.1,7.2,1.1c1.8,0,3.4-0.1,4.9-0.2c1.5-0.1,3-0.3,4.4-0.6c1.5-0.3,3.1-0.7,4.6-1.1c1.6-0.5,3.4-1.1,5.3-1.8l1.8,5.1
	c-2.9,2-6,3.8-9.2,5.4c-3.2,1.6-6.5,3-9.9,4.2c-3.2,1.1-6.4,2-9.7,2.7c-2.9,0.6-5.9,0.9-8.8,0.9c-3.6,0.1-7.2-0.9-10.4-2.8
	c-3.5-2.3-6.5-5.3-8.7-8.9c-3.2-4.9-6-10.1-8.3-15.6c-2.8-6.3-5.9-13.9-9.3-22.8c-4.2,7.5-8.4,14.3-12.5,20.5
	c-3.7,5.7-7.8,11-12.4,16c-3.7,4.1-7.9,7.6-12.5,10.5c-3.8,2.4-8.2,3.7-12.7,3.7c-2.3,0-4.6-0.3-6.8-1.1c-1.8-0.6-3.4-1.6-4.9-2.8
	c-1.3-1.1-2.3-2.6-3-4.1c-0.7-1.6-1-3.2-1-4.9c0-2.1,0.5-4.2,1.4-6.2c1-2.2,2.3-4.3,4-6c2.8,1.1,5.7,1.9,8.6,2.5
	c2.3,0.4,4.6,0.7,6.9,0.7c3.8,0,7.6-1,10.9-2.8c3.8-2.1,7.2-4.8,10.2-8c3.7-3.9,7-8.1,9.9-12.6c3.3-4.9,6.5-10.4,9.9-16.4
	c-1.1-2.8-2.2-5.8-3.3-8.8c-1.1-3-2.3-6.2-3.5-9.6c-1.2-3.3-2.5-6.9-3.9-10.7s-2.8-7.8-4.4-12.1c-1.1-3.1-2.4-6-4-8.8
	c-1.1-2-2.6-3.8-4.3-5.3c-1.4-1.2-3.1-2.2-4.9-2.7c-1.9-0.5-3.9-0.7-5.8-0.7c-2.3,0-4.5,0.3-6.7,0.7c-2.6,0.4-5.4,1-8.4,1.6
	L89.8,29.4z" />
</svg>